<svg xmlns="http://www.w3.org/2000/svg" viewBox="0 0 1200 800" role="img" aria-labelledby="title desc">
  <title id="title">Quarto migration</title>
  <desc id="desc">Abstract migration path from an older blog engine to a modern Quarto site.</desc>
  <defs>
    <linearGradient id="bg" x1="0" x2="1" y1="0" y2="1">
      <stop offset="0" stop-color="#e5efe8"/>
      <stop offset="1" stop-color="#f7f4eb"/>
    </linearGradient>
  </defs>
  <rect width="1200" height="800" fill="url(#bg)"/>
  <rect x="130" y="155" width="360" height="340" rx="34" fill="#fffefa" stroke="#d8ded8" stroke-width="6"/>
  <rect x="710" y="155" width="360" height="340" rx="34" fill="#fffefa" stroke="#d8ded8" stroke-width="6"/>
  <path d="M515 325h150" stroke="#0f6b6f" stroke-width="24" stroke-linecap="round"/>
  <path d="M645 270l65 55-65 55" fill="none" stroke="#0f6b6f" stroke-width="24" stroke-linecap="round" stroke-linejoin="round"/>
  <circle cx="310" cy="300" r="80" fill="#edf4f3" stroke="#144e58" stroke-width="8"/>
  <path d="M265 295h90M265 345h55" stroke="#144e58" stroke-width="20" stroke-linecap="round"/>
  <circle cx="890" cy="300" r="92" fill="#edf4f3" stroke="#144e58" stroke-width="8"/>
  <path d="M845 295c0-38 22-65 53-65 30 0 53 27 53 65 0 52-28 91-53 91-25 0-53-39-53-91z" fill="none" stroke="#0f6b6f" stroke-width="16"/>
  <path d="M245 570h710" stroke="#5f7077" stroke-width="18" stroke-linecap="round" opacity=".55"/>
  <path d="M245 625h470" stroke="#5f7077" stroke-width="18" stroke-linecap="round" opacity=".4"/>
</svg>
